<svg width="24" height="24" viewBox="0 0 24 24" fill="none" xmlns="http://www.w3.org/2000/svg">
  <path
    d="M16.1977 1.1278C16.2373 0.9778 16.2051 0.817891 16.1105 0.694958C16.0158 0.572026 15.8694 0.5 15.7143 0.5H8.21429C7.98527 0.5 7.78552 0.655597 7.72949 0.877655L4.5152 13.6145C4.47748 13.764 4.51082 13.9225 4.60556 14.0441C4.70029 14.1657 4.84584 14.2368 5 14.2368H10.7997L8.79858 22.8873C8.7456 23.1163 8.85932 23.3514 9.07179 23.4519C9.28427 23.5525 9.53812 23.4915 9.68167 23.3053L20.396 9.41058C20.5123 9.25965 20.5328 9.05569 20.4487 8.88465C20.3646 8.71362 20.1906 8.60526 20 8.60526H14.2208L16.1977 1.1278Z"
    stroke="#B2B2B2" stroke-miterlimit="10" stroke-linecap="round" stroke-linejoin="round" />
</svg>